<?xml version="1.0" encoding="UTF-8"?>
<svg xmlns="http://www.w3.org/2000/svg" viewBox="0 0 384 512" role="img" aria-label="Логотип Александр и Александра">
<defs><style>
  @import url('https://fonts.googleapis.com/css2?family=Cormorant+Garamond:ital,wght@0,400;0,500;0,600;1,400&display=swap');
  @import url('https://fonts.cdnfonts.com/css/miama-nueva');
  .serif { font-family: 'Cormorant Garamond', Georgia, serif; }
  .script { font-family: 'Miama Nueva', 'Segoe Script', cursive; }
</style></defs>
<g fill="#EAE4DC" stroke="#EAE4DC" stroke-linecap="round" stroke-linejoin="round">

<text class="serif" x="128" y="160" text-anchor="middle" font-size="88" font-weight="500" fill="#EAE4DC">A</text>
<text class="script" x="192.0" y="160" text-anchor="middle" font-size="52" fill="#EAE4DC">&amp;</text>
<text class="serif" x="256" y="160" text-anchor="middle" font-size="88" font-weight="500" fill="#EAE4DC">A</text>
<path d="M 48 156 C 68 152, 88 150, 108 152 C 128 154, 148 158, 168 162 C 188 166, 208 170, 228 172 C 248 174, 268 172, 288 166 M 108 152 C 114 142, 120 132, 126 122 M 168 162 C 174 152, 180 142, 186 132 M 228 172 C 234 162, 240 152, 246 142 M 88 150 C 82 140, 76 130, 70 120 M 248 174 C 254 164, 260 154, 266 144" fill="none" stroke-width="1.1"/>
<text class="serif" x="192.0" y="270" text-anchor="middle" font-size="20" letter-spacing="0.12em" fill="#EAE4DC">Александр</text>
<text class="script" x="192.0" y="298" text-anchor="middle" font-size="17.0" fill="#EAE4DC">и</text>
<text class="serif" x="192.0" y="326" text-anchor="middle" font-size="20" letter-spacing="0.12em" fill="#EAE4DC">Александра</text>
</g>
</svg>
