<?xml version="1.0" encoding="UTF-8"?>
<svg xmlns="http://www.w3.org/2000/svg" viewBox="0 0 384 512" role="img" aria-label="Логотип Александр и Александра">
<defs><style>
  @import url('https://fonts.googleapis.com/css2?family=Cormorant+Garamond:ital,wght@0,400;0,500;0,600;1,400&display=swap');
  @import url('https://fonts.cdnfonts.com/css/miama-nueva');
  .serif { font-family: 'Cormorant Garamond', Georgia, serif; }
  .script { font-family: 'Miama Nueva', 'Segoe Script', cursive; }
</style></defs>
<g fill="#8B9784" stroke="#8B9784" stroke-linecap="round" stroke-linejoin="round">
<rect width="384" height="512" fill="#EAE4DC"/>
<circle cx="192.0" cy="230" r="148" fill="none" stroke-width="1.2"/>
<circle cx="192.0" cy="230" r="142" fill="none" stroke-width="0.8"/>
<text class="serif" x="158" y="220" text-anchor="middle" font-size="64" font-weight="500" fill="#8B9784">A</text>
<text class="serif" x="226" y="220" text-anchor="middle" font-size="64" font-weight="500" fill="#8B9784">A</text>
<line x1="192.0" y1="160" x2="192.0" y2="240" stroke-width="0.9" fill="none"/>
<path d="M 150 210 C 160 206, 170 204, 180 204 C 190 204, 200 206, 210 210 M 170 204 C 174 198, 178 192, 182 186 M 180 204 C 184 198, 188 192, 192 186" fill="none" stroke-width="1.0"/>
<path id="topArc" d="M 84.0 212 A 112 112 0 0 1 300.0 212" fill="none"/>
<text class="serif" font-size="17" letter-spacing="0.14em" fill="#8B9784">
  <textPath href="#topArc" startOffset="50%" text-anchor="middle">Александр</textPath>
</text>
<path id="botArc" d="M 300.0 284 A 112 112 0 0 1 84.0 284" fill="none"/>
<text class="serif" font-size="17" letter-spacing="0.14em" fill="#8B9784">
  <textPath href="#botArc" startOffset="50%" text-anchor="middle">Александра</textPath>
</text>
<circle cx="84.0" cy="248" r="2.2" fill="#8B9784" stroke="none"/>
<circle cx="300.0" cy="248" r="2.2" fill="#8B9784" stroke="none"/>
</g>
</svg>
