<?xml version="1.0" encoding="UTF-8"?>
<svg xmlns="http://www.w3.org/2000/svg" viewBox="0 0 384 512" role="img" aria-label="Логотип Александр и Александра">
<defs><style>
  @import url('https://fonts.googleapis.com/css2?family=Cormorant+Garamond:ital,wght@0,400;0,500;0,600;1,400&display=swap');
  @import url('https://fonts.cdnfonts.com/css/miama-nueva');
  .serif { font-family: 'Cormorant Garamond', Georgia, serif; }
  .script { font-family: 'Miama Nueva', 'Segoe Script', cursive; }
</style></defs>
<g fill="#EAE4DC" stroke="#EAE4DC" stroke-linecap="round" stroke-linejoin="round">
<rect width="384" height="512" fill="#8B9784"/>
<text class="serif" x="148" y="212" text-anchor="middle" font-size="118" font-weight="500" fill="#EAE4DC">A</text>
<text class="serif" x="236" y="250" text-anchor="middle" font-size="118" font-weight="500" fill="#EAE4DC">A</text>
<path d="M 54 322 C 70 302, 90 280, 112 258 C 134 236, 158 214, 184 194 C 204 178, 226 164, 250 152 C 270 142, 290 134, 310 128 M 112 258 C 122 246, 132 232, 140 218 M 158 214 C 168 204, 178 192, 186 180 M 184 194 C 194 186, 204 178, 214 170 M 250 152 C 260 144, 270 136, 280 128 M 90 280 C 98 268, 106 256, 112 244" fill="none" stroke-width="1.15"/>
</g>
</svg>
