<?xml version="1.0" encoding="UTF-8"?>
<svg xmlns="http://www.w3.org/2000/svg" viewBox="0 0 384 512" role="img" aria-label="Логотип Александр и Александра">
<defs><style>
  @import url('https://fonts.googleapis.com/css2?family=Cormorant+Garamond:ital,wght@0,400;0,500;0,600;1,400&display=swap');
  @import url('https://fonts.cdnfonts.com/css/miama-nueva');
  .serif { font-family: 'Cormorant Garamond', Georgia, serif; }
  .script { font-family: 'Miama Nueva', 'Segoe Script', cursive; }
</style></defs>
<g fill="#EAE4DC" stroke="#EAE4DC" stroke-linecap="round" stroke-linejoin="round">

<ellipse cx="192.0" cy="248" rx="118" ry="198" fill="none" stroke-width="1.1"/>
<ellipse cx="192.0" cy="248" rx="112" ry="192" fill="none" stroke-width="0.8"/>
<path d="M 272 112 C 276 134, 278 156, 276 178 C 274 200, 270 222, 264 244 C 258 266, 250 286, 240 304 C 230 322, 218 338, 204 352 M 276 178 C 282 176, 288 174, 294 172 M 264 244 C 270 242, 276 240, 282 238 M 250 286 C 256 284, 262 282, 268 280" fill="none" stroke-width="1.0"/>
<text class="serif" x="158" y="190" text-anchor="middle" font-size="72" font-weight="500" fill="#EAE4DC">A</text>
<text class="serif" x="226" y="190" text-anchor="middle" font-size="72" font-weight="500" fill="#EAE4DC">A</text>
<line x1="192.0" y1="120" x2="192.0" y2="210" stroke-width="0.9" fill="none"/>
<path d="M 186 122 C 190 128, 194 134, 198 140 C 202 146, 206 152, 210 158" fill="none" stroke-width="1.0"/>
<text class="serif" x="192.0" y="320" text-anchor="middle" font-size="18" letter-spacing="0.12em" fill="#EAE4DC">Александр</text>
<text class="script" x="192.0" y="346" text-anchor="middle" font-size="15.299999999999999" fill="#EAE4DC">и</text>
<text class="serif" x="192.0" y="372" text-anchor="middle" font-size="18" letter-spacing="0.12em" fill="#EAE4DC">Александра</text>
</g>
</svg>
