<?xml version="1.0" encoding="UTF-8"?>
<svg xmlns="http://www.w3.org/2000/svg" viewBox="0 0 384 512" role="img" aria-label="Логотип Александр и Александра">
<defs><style>
  @import url('https://fonts.googleapis.com/css2?family=Cormorant+Garamond:ital,wght@0,400;0,500;0,600;1,400&display=swap');
  @import url('https://fonts.cdnfonts.com/css/miama-nueva');
  .serif { font-family: 'Cormorant Garamond', Georgia, serif; }
  .script { font-family: 'Miama Nueva', 'Segoe Script', cursive; }
</style></defs>
<g fill="#EAE4DC" stroke="#EAE4DC" stroke-linecap="round" stroke-linejoin="round">
<rect width="384" height="512" fill="#8B9784"/>
<text class="serif" x="148" y="170" text-anchor="middle" font-size="96" font-weight="500" fill="#EAE4DC">A</text>
<text class="serif" x="236" y="170" text-anchor="middle" font-size="96" font-weight="500" fill="#EAE4DC">A</text>
<line x1="192.0" y1="90" x2="192.0" y2="190" stroke-width="1" fill="none"/>
<path d="M 116 172 C 106 184, 98 196, 92 208 C 86 220, 82 232, 80 244 M 98 196 C 104 192, 110 186, 116 180 M 104 186 C 98 180, 92 174, 86 168 M 268 172 C 278 184, 286 196, 292 208 C 298 220, 302 232, 304 244 M 292 208 C 286 204, 280 198, 274 192 M 286 196 C 292 190, 298 184, 304 178" fill="none" stroke-width="1.1"/>
<text class="serif" x="192.0" y="270" text-anchor="middle" font-size="20" letter-spacing="0.12em" fill="#EAE4DC">Александр</text>
<text class="script" x="192.0" y="298" text-anchor="middle" font-size="17.0" fill="#EAE4DC">и</text>
<text class="serif" x="192.0" y="326" text-anchor="middle" font-size="20" letter-spacing="0.12em" fill="#EAE4DC">Александра</text>
</g>
</svg>
